<?xml version="1.0" encoding="utf-8"?>
<!-- Generator: Adobe Illustrator 19.0.1, SVG Export Plug-In . SVG Version: 6.00 Build 0)  -->
<svg version="1.1" id="레이어_1" xmlns="http://www.w3.org/2000/svg" xmlns:xlink="http://www.w3.org/1999/xlink" x="0px"
	 y="0px" viewBox="-109 254.5 622.6 86.8" style="enable-background:new -109 254.5 622.6 86.8;" xml:space="preserve">
<style type="text/css">
	.st0{fill:#00548A;}
	.st1{fill:#005891;}
	.st2{fill:#FFFFFF;}
</style>
<g>
	<circle class="st1" cx="-163.4" cy="297.9" r="243.4"/>
	<path class="st2" d="M-62,272.3c-11.2,0-20,8.7-20,20v26.5c0,0-0.4,3.5,1.3,6c1.2,1.7,2.8,2.9,4.6,3c1.3-0.1,1.3-1.7,1.3-1.7v-18.2
		c3.4,2.8,7.9,4.4,12.8,4.4c11.2,0,20-8.7,20-20C-42,280.9-50.8,272.3-62,272.3 M-62,305.3c-7.1,0-12.8-5.9-12.8-13.1
		c0-7.2,5.7-13.1,12.8-13.1c7.1,0,12.8,5.8,12.8,13.1C-49.2,299.4-54.9,305.3-62,305.3"/>
</g>
</svg>
