<?xml version="1.0" encoding="UTF-8" standalone="no"?>
<!-- Created with Inkscape (http://www.inkscape.org/) -->

<svg
   xmlns:dc="http://purl.org/dc/elements/1.1/"
   xmlns:cc="http://creativecommons.org/ns#"
   xmlns:rdf="http://www.w3.org/1999/02/22-rdf-syntax-ns#"
   xmlns:svg="http://www.w3.org/2000/svg"
   xmlns="http://www.w3.org/2000/svg"
   xmlns:sodipodi="http://sodipodi.sourceforge.net/DTD/sodipodi-0.dtd"
   xmlns:inkscape="http://www.inkscape.org/namespaces/inkscape"
   width="300mm"
   height="300mm"
   viewBox="0 0 300 300"
   version="1.1"
   id="svg3800"
   sodipodi:docname="p_logo.svg"
   inkscape:version="0.92.1 r15371">
  <defs
     id="defs3794" />
  <sodipodi:namedview
     id="base"
     pagecolor="#ffffff"
     bordercolor="#666666"
     borderopacity="1.0"
     inkscape:pageopacity="0.0"
     inkscape:pageshadow="2"
     inkscape:zoom="0.35"
     inkscape:cx="400"
     inkscape:cy="560"
     inkscape:document-units="mm"
     inkscape:current-layer="layer1"
     showgrid="false"
     inkscape:window-width="1580"
     inkscape:window-height="1028"
     inkscape:window-x="-8"
     inkscape:window-y="-8"
     inkscape:window-maximized="1" />
  <metadata
     id="metadata3797">
    <rdf:RDF>
      <cc:Work
         rdf:about="">
        <dc:format>image/svg+xml</dc:format>
        <dc:type
           rdf:resource="http://purl.org/dc/dcmitype/StillImage" />
        <dc:title></dc:title>
      </cc:Work>
    </rdf:RDF>
  </metadata>
  <g
     inkscape:label="Layer 1"
     inkscape:groupmode="layer"
     id="layer1"
     transform="translate(0,3)">
    <circle
       id="circle3780"
       cy="146.86838"
       cx="149.82976"
       class="st1"
       style="fill:#005891;stroke-width:3.40857887"
       r="147.93231" />
    <path
       id="path3782"
       d="m 154.60171,59.608352 c -38.17604,0 -68.171477,29.654411 -68.171477,68.171268 v 90.32736 c 0,0 -1.363519,11.93 4.431038,20.45146 4.090304,5.79457 9.544109,9.88486 15.679549,10.22574 4.43117,-0.3414 4.43117,-5.79455 4.43117,-5.79455 v -62.03618 c 11.58912,9.54412 26.92767,14.99779 43.62972,14.99779 38.17617,0 68.17162,-29.6547 68.17162,-68.17162 0,-38.857727 -29.99545,-68.171268 -68.17162,-68.171268 m 0,112.482878 c -24.20089,0 -43.62972,-20.11072 -43.62972,-44.6525 0,-24.54175 19.42883,-44.652251 43.62972,-44.652251 24.20089,0 43.62986,19.769751 43.62986,44.652251 0,24.54178 -19.42897,44.6525 -43.62986,44.6525"
       class="st2"
       inkscape:connector-curvature="0"
       style="fill:#ffffff;stroke-width:3.40857887" />
  </g>
</svg>
